<svg width="74" height="72" viewBox="0 0 74 72" fill="none" xmlns="http://www.w3.org/2000/svg">
<path d="M46.1171 71.01H28.3171C23.2671 71.01 18.5571 68.78 15.4171 64.88L4.31715 51.16L4.93715 50.66L16.0371 64.38C19.0271 68.09 23.5071 70.21 28.3171 70.21H46.1171C50.9272 70.21 55.4071 68.09 58.3971 64.38L69.4371 50.73L72.6572 38.26C72.6171 38.03 72.5672 37.81 72.5172 37.58L72.4271 37.18L68.5572 20.46C67.4872 15.84 64.3871 12.02 60.0571 9.96L44.0371 2.35C39.7071 0.29 34.7371 0.29 30.3971 2.35L14.3571 9.97C10.0271 12.03 6.92715 15.85 5.85715 20.47L1.89715 37.58C0.827149 42.19 1.92715 46.96 4.92715 50.67L4.30715 51.17C1.16715 47.26 0.00714898 42.24 1.12715 37.39L5.08715 20.28C6.20715 15.43 9.46715 11.4 14.0171 9.24L30.0571 1.62C34.6071 -0.54 39.8271 -0.54 44.3771 1.62L60.3971 9.23C64.9472 11.39 68.2071 15.42 69.3271 20.27L73.1972 37L73.8372 36.85L73.4671 38.29C74.2571 42.86 73.0571 47.5 70.0971 51.16L58.9972 64.88C55.8572 68.77 51.1471 71.01 46.0971 71.01H46.1171ZM72.9072 40.5L70.7471 48.86C72.2671 46.32 73.0172 43.43 72.9072 40.5Z" fill="#FFA61E"/>
<path d="M40.4373 71.98C38.9573 71.98 37.4573 71.78 35.9873 71.37L19.0173 66.68C14.1973 65.35 10.3073 61.99 8.32726 57.47L1.34726 41.52C-0.632742 36.99 -0.422742 31.92 1.92726 27.61L10.1973 12.41C12.5473 8.09996 16.6973 5.12997 21.6073 4.27997L38.8973 1.26996C43.7973 0.419965 48.7773 1.78997 52.5473 5.03997L65.8173 16.49C69.5872 19.74 71.6373 24.42 71.4373 29.33L70.7173 46.62C70.5173 51.52 68.0872 55.98 64.0673 58.85L49.8873 68.95C47.0973 70.94 43.7973 71.97 40.4373 71.97V71.98ZM38.9473 2.06996L21.7473 5.05997C17.0773 5.86997 13.1273 8.68996 10.8973 12.78L2.63726 27.99C0.407258 32.08 0.207258 36.9 2.08726 41.2L9.06726 57.15C10.9473 61.45 14.6573 64.65 19.2373 65.91L36.2073 70.6C40.7873 71.87 45.6073 71.03 49.4373 68.3L63.6173 58.2C67.4373 55.47 69.7373 51.24 69.9273 46.59L70.6473 29.3C70.8373 24.64 68.8873 20.19 65.3073 17.1L52.0973 5.70997L38.9473 2.07996V2.06996ZM41.0873 1.82996L50.3673 4.39997C47.6173 2.58997 44.3673 1.68997 41.0873 1.82996Z" fill="#FFA61E"/>
</svg>
