<svg width="19" height="18" viewBox="0 0 19 18" fill="none"
    xmlns="http://www.w3.org/2000/svg">
    <path d="M18.51 9.24455C18.51 4.13888 14.3707 0 9.26506 0C4.15939 0 0.0205078 4.13888 0.0205078 9.24455C0.0205078 13.2969 2.62813 16.7399 6.25713 17.9881C6.47831 17.8284 6.73305 17.6315 6.73305 17.2999C6.73305 16.7917 6.72213 15.4836 6.72213 15.4836C6.72213 15.4836 6.32102 15.5519 5.74806 15.5519C4.30495 15.5519 3.84885 14.6361 3.63172 14.1238C3.34908 13.4562 2.98274 13.1428 2.59336 12.8922C2.35439 12.7381 2.2994 12.557 2.57597 12.5048C3.8533 12.2654 4.17961 13.9455 5.03277 14.2132C5.64172 14.404 6.42453 14.3215 6.81392 14.0708C6.86527 13.5577 7.23727 13.1141 7.547 12.8804C5.37728 12.673 4.09105 11.9237 3.42388 10.7192L3.35232 10.5842L3.18451 10.2016L3.13518 10.0646C2.92613 9.4532 2.83394 8.75287 2.83394 7.97086C2.83394 6.58234 3.26902 6.05831 3.8533 5.31795C3.4065 3.73494 4.01382 2.65291 4.01382 2.65291C4.01382 2.65291 4.95312 2.45923 6.7282 3.72362C7.69013 3.31361 10.2557 3.27924 11.4696 3.63264C12.214 3.14298 13.577 2.44791 14.1265 2.6428C14.2753 2.88096 14.596 3.57603 14.3214 5.10203C14.5078 5.43683 15.4782 6.14969 15.4819 8.16576C15.4661 8.90935 15.3885 9.53689 15.2441 10.0678L15.1641 10.3395C15.1641 10.3395 15.1184 10.4677 15.0682 10.5898L15.0096 10.7249C14.3659 12.1308 13.0457 12.6556 10.9124 12.874C11.6038 13.3066 11.8019 13.8496 11.8019 15.319C11.8019 16.7884 11.7821 16.9857 11.787 17.3238C11.791 17.6226 12.03 17.8373 12.2447 17.9998C15.889 16.7601 18.5108 13.309 18.5108 9.24577L18.51 9.24455Z" fill="#324434"/>
</svg>
