<svg width="19" height="18" viewBox="0 0 19 18" fill="none"
    xmlns="http://www.w3.org/2000/svg">
    <path fill-rule="evenodd" clip-rule="evenodd" d="M14.3258 3.1167C13.7297 3.1167 13.2452 3.59998 13.2452 4.19665C13.2452 4.79332 13.7297 5.27659 14.3258 5.27659C14.9229 5.27659 15.4064 4.79332 15.4064 4.19665C15.4064 3.59998 14.9229 3.1167 14.3258 3.1167ZM9.5144 12.0005C7.85654 12.0005 6.51297 10.656 6.51297 9.00094C6.51297 7.34322 7.85654 6.00049 9.5144 6.00049C11.1722 6.00049 12.5167 7.34322 12.5167 9.00094C12.5167 10.656 11.1722 12.0005 9.5144 12.0005ZM9.51893 4.37793C6.96506 4.37793 4.89477 6.44693 4.89477 9.0001C4.89477 11.5524 6.96506 13.6205 9.51893 13.6205C12.0737 13.6205 14.144 11.5524 14.144 9.0001C14.144 6.44693 12.0737 4.37793 9.51893 4.37793ZM16.8459 12.6381C16.8053 13.5155 16.6586 13.9916 16.5352 14.3093C16.3713 14.7296 16.1768 15.0293 15.8616 15.3442C15.5464 15.6592 15.2465 15.8545 14.826 16.0165C14.509 16.1407 14.0317 16.2865 13.1537 16.327C12.2046 16.3702 11.92 16.3801 9.51475 16.3801C7.11036 16.3801 6.8258 16.3702 5.87665 16.327C4.99775 16.2865 4.52137 16.1407 4.20439 16.0165C3.78385 15.8545 3.48398 15.6592 3.1688 15.3442C2.85362 15.0293 2.6582 14.7296 2.49521 14.3093C2.37184 13.9916 2.22505 13.5155 2.18453 12.6381C2.14221 11.6895 2.1323 11.4042 2.1323 9.00226C2.1323 6.59849 2.14221 6.3141 2.18453 5.36555C2.22505 4.48719 2.37184 4.01112 2.49521 3.69433C2.6582 3.27315 2.85362 2.97347 3.1688 2.65938C3.48398 2.3444 3.78385 2.14911 4.20439 1.98622C4.52137 1.86202 4.99775 1.71623 5.87665 1.67573C6.8258 1.63253 7.11036 1.62354 9.51475 1.62354C11.92 1.62354 12.2046 1.63253 13.1537 1.67573C14.0317 1.71623 14.509 1.86202 14.826 1.98622C15.2465 2.14911 15.5464 2.3444 15.8616 2.65938C16.1768 2.97347 16.3713 3.27315 16.5352 3.69433C16.6586 4.01112 16.8053 4.48719 16.8459 5.36555C16.8891 6.3141 16.8972 6.59849 16.8972 9.00226C16.8972 11.4042 16.8891 11.6895 16.8459 12.6381ZM18.4682 5.28994C18.4241 4.33148 18.2719 3.67722 18.0495 3.10484C17.8189 2.51267 17.511 2.0105 17.0103 1.51102C16.5096 1.01065 16.0071 0.702865 15.4155 0.472476C14.8418 0.250187 14.1881 0.0971951 13.229 0.0548973C12.2691 0.0107995 11.962 0 9.51617 0C7.07126 0 6.76418 0.0107995 5.80423 0.0548973C4.84518 0.0971951 4.1905 0.250187 3.61777 0.472476C3.02523 0.702865 2.52364 1.01065 2.02296 1.51102C1.52227 2.0105 1.21429 2.51267 0.983758 3.10484C0.76133 3.67722 0.609143 4.33148 0.565918 5.28994C0.521793 6.24839 0.510986 6.55617 0.510986 9.00045C0.510986 11.4429 0.521793 11.7507 0.565918 12.7101C0.609143 13.6676 0.76133 14.3228 0.983758 14.8943C1.21429 15.4864 1.52227 15.9886 2.02296 16.489C2.52364 16.9894 3.02523 17.2962 3.61777 17.5266C4.1905 17.7489 4.84518 17.9019 5.80423 17.9451C6.76418 17.9892 7.07126 18 9.51617 18C11.962 18 12.2691 17.9892 13.229 17.9451C14.1881 17.9019 14.8418 17.7489 15.4155 17.5266C16.0071 17.2962 16.5096 16.9894 17.0103 16.489C17.511 15.9886 17.8189 15.4864 18.0495 14.8943C18.2719 14.3228 18.4241 13.6676 18.4682 12.7101C18.5105 11.7507 18.5213 11.4429 18.5213 9.00045C18.5213 6.55617 18.5105 6.24839 18.4682 5.28994Z" fill="#324434"/>
</svg>
