<svg width="19" height="18" viewBox="0 0 19 18" fill="none"
    xmlns="http://www.w3.org/2000/svg">
    <path d="M9.01221 0.00917998C11.5683 0.00917998 14.1244 0.0162147 16.6804 0.00355218C17.3613 0.000738278 17.9128 0.487543 18.0042 1.0869C18.0141 1.15303 18.0197 1.22056 18.0197 1.28669C18.0211 6.4319 18.0211 11.5771 18.0197 16.7223C18.0197 17.4047 17.4767 17.9689 16.7972 17.9984C16.7522 17.9998 16.7072 17.9998 16.6622 17.9998C11.5613 17.9998 6.46036 17.9998 1.35805 17.9998C0.717975 17.9998 0.23405 17.6565 0.0652395 17.0755C0.0300706 16.9531 0.0117827 16.8222 0.010376 16.6956C0.010376 11.5701 0.010376 6.44035 0.010376 1.31202C0.010376 0.581808 0.560418 0.0190286 1.29193 0.0105869C1.9109 0.00355218 2.52847 0.00917998 3.14604 0.00917998C5.10143 0.00917998 7.05682 0.00917998 9.01221 0.00917998ZM9.61431 7.91061C9.61431 7.55184 9.60868 7.24372 9.61712 6.93559C9.62134 6.78505 9.58054 6.73018 9.42017 6.73299C8.68444 6.74143 7.94871 6.74284 7.21297 6.73299C7.03853 6.73018 6.99774 6.78786 6.99774 6.95388C7.00196 9.68899 7.00196 12.4241 6.99774 15.1592C6.99774 15.3266 7.04135 15.3843 7.21438 15.3829C7.97825 15.3745 8.74212 15.3745 9.50599 15.3829C9.6762 15.3843 9.72403 15.3337 9.72263 15.162C9.71559 13.786 9.71559 12.41 9.72122 11.034C9.72263 10.7498 9.74091 10.4614 9.79015 10.1814C9.89425 9.59895 10.1587 9.12762 10.7819 8.97286C10.9746 8.92502 11.1814 8.91658 11.3812 8.91798C12.0016 8.92502 12.4095 9.22611 12.5488 9.82969C12.6304 10.1814 12.6613 10.55 12.6642 10.9116C12.6768 12.327 12.6712 13.7424 12.667 15.1578C12.667 15.3224 12.7092 15.3857 12.885 15.3843C13.6489 15.3759 14.4128 15.3773 15.1766 15.3843C15.3398 15.3857 15.3848 15.3337 15.3848 15.1719C15.3792 13.6496 15.3806 12.1272 15.3834 10.6049C15.3848 9.98023 15.3525 9.35977 15.209 8.75056C15.0134 7.91905 14.6294 7.20854 13.8107 6.84273C12.9976 6.47833 12.1451 6.40658 11.2813 6.63169C10.5737 6.8146 10.0349 7.24934 9.61431 7.91061ZM5.36731 11.0425C5.36731 9.67211 5.3659 8.30315 5.37012 6.93278C5.37012 6.78083 5.32792 6.73018 5.17036 6.73159C4.39524 6.73862 3.62011 6.73862 2.84499 6.73159C2.69306 6.73018 2.64523 6.77098 2.64523 6.92856C2.64945 9.67914 2.64945 12.4311 2.64523 15.1817C2.64523 15.3449 2.70432 15.3801 2.85062 15.3787C3.61449 15.3745 4.37836 15.3773 5.14223 15.3759C5.36731 15.3759 5.36731 15.3745 5.36731 15.1508C5.36731 13.7832 5.36731 12.4128 5.36731 11.0425ZM4.00979 5.5807C4.87635 5.5807 5.57129 4.88848 5.57129 4.02461C5.57129 3.15231 4.87494 2.45446 4.00416 2.45446C3.13338 2.45446 2.44266 3.1509 2.44407 4.03024C2.44688 4.89411 3.14041 5.58211 4.00979 5.5807Z" fill="#324434"/>
</svg>
