<svg width="19" height="15" viewBox="0 0 19 15" fill="none"
    xmlns="http://www.w3.org/2000/svg">
    <path fill-rule="evenodd" clip-rule="evenodd" d="M5.66419 14.9998C12.4608 14.9998 16.1776 9.22975 16.1776 4.22638C16.1776 4.06242 16.1743 3.8992 16.167 3.73686C16.8885 3.20246 17.5156 2.53561 18.0104 1.77634C17.3483 2.07769 16.6357 2.28085 15.8884 2.37246C16.6512 1.90376 17.237 1.16198 17.5132 0.277875C16.7991 0.711587 16.0086 1.02711 15.167 1.1969C14.4926 0.460957 13.5323 0.000595093 12.4697 0.000595093C10.4289 0.000595093 8.77407 1.69639 8.77407 3.78684C8.77407 4.08405 8.80656 4.37292 8.86996 4.6502C5.79905 4.492 3.07581 2.98519 1.25359 0.69409C0.935962 1.25352 0.753121 1.90376 0.753121 2.59725C0.753121 3.91094 1.40553 5.07063 2.39747 5.74906C1.79138 5.72994 1.22189 5.55926 0.723872 5.27534C0.72308 5.29114 0.72308 5.30701 0.72308 5.32362C0.72308 7.15768 1.99692 8.68863 3.68759 9.03582C3.37723 9.12234 3.05067 9.16907 2.71351 9.16907C2.47542 9.16907 2.24388 9.14486 2.01889 9.10071C2.48925 10.6051 3.85328 11.6998 5.47083 11.7307C4.20585 12.7463 2.61273 13.3515 0.881499 13.3515C0.58332 13.3515 0.289246 13.334 0 13.299C1.63541 14.373 3.57707 14.9998 5.66419 14.9998Z" fill="#324434"/>
</svg>
