<svg width="22" height="22" viewBox="0 0 22 22" fill="none" xmlns="http://www.w3.org/2000/svg">
<path d="M6.33333 0.5C3.11683 0.5 0.5 3.11683 0.5 6.33333V15.6667C0.5 18.8832 3.11683 21.5 6.33333 21.5H15.6667C18.8832 21.5 21.5 18.8832 21.5 15.6667V6.33333C21.5 3.11683 18.8832 0.5 15.6667 0.5H6.33333ZM6.33333 2.83333H15.6667C17.5963 2.83333 19.1667 4.40367 19.1667 6.33333V15.6667C19.1667 17.5963 17.5963 19.1667 15.6667 19.1667H6.33333C4.40367 19.1667 2.83333 17.5963 2.83333 15.6667V6.33333C2.83333 4.40367 4.40367 2.83333 6.33333 2.83333ZM16.8333 4C16.5239 4 16.2272 4.12292 16.0084 4.34171C15.7896 4.5605 15.6667 4.85725 15.6667 5.16667C15.6667 5.47609 15.7896 5.77283 16.0084 5.99162C16.2272 6.21042 16.5239 6.33333 16.8333 6.33333C17.1428 6.33333 17.4395 6.21042 17.6583 5.99162C17.8771 5.77283 18 5.47609 18 5.16667C18 4.85725 17.8771 4.5605 17.6583 4.34171C17.4395 4.12292 17.1428 4 16.8333 4ZM11 5.16667C7.7835 5.16667 5.16667 7.7835 5.16667 11C5.16667 14.2165 7.7835 16.8333 11 16.8333C14.2165 16.8333 16.8333 14.2165 16.8333 11C16.8333 7.7835 14.2165 5.16667 11 5.16667ZM11 7.5C12.9297 7.5 14.5 9.07033 14.5 11C14.5 12.9297 12.9297 14.5 11 14.5C9.07033 14.5 7.5 12.9297 7.5 11C7.5 9.07033 9.07033 7.5 11 7.5Z" fill="white"/>
</svg>
