<svg width="23" height="22" viewBox="0 0 23 22" fill="none" xmlns="http://www.w3.org/2000/svg">
<path d="M18.0603 0.587728C15.2647 0.564761 12.4633 0.455449 9.66187 0.524475C6.41752 0.605047 3.88652 0.80058 1.97098 3.39496C1.47048 4.63165 1.21747 6.07556 1.09661 7.58271C1.07364 7.97967 1.05055 8.38806 1.02181 8.80799C0.918271 11.3677 1.09084 14.0082 1.03336 16.1019C1.30369 17.4768 1.83293 18.7135 2.82239 19.6569C6.10125 22.7804 12.7739 21.8082 17.1457 21.6357C19.2453 20.8706 20.994 20.2378 21.9316 17.8391C22.6737 15.9523 22.5528 13.5478 22.6046 11.5231C22.7024 7.35819 22.8865 1.6117 18.0603 0.587728Z" fill="white"/>
<path d="M16.7776 2.07179C22.3631 2.79079 20.7237 10.8844 20.5684 14.8075C20.482 16.9646 20.0967 18.6328 17.8706 19.3805C14.9426 20.3642 10.6284 20.0363 7.64293 19.5992C5.64682 19.3115 4.08218 18.7132 3.52997 16.6425C2.6556 13.3694 2.90297 8.94002 3.28261 5.60367C3.29416 5.54042 3.31135 5.49436 3.34009 5.45407C3.3918 0.461226 13.8726 1.69792 16.7776 2.07179Z" fill="#161618"/>
<path d="M19.0958 5.11484C19.1073 3.73997 17.3931 3.30284 16.4727 4.14847C16.2253 4.37852 16.1102 4.72942 16.093 5.10907C16.185 5.59802 16.4784 6.0812 16.8581 6.35731C17.7498 6.98431 19.0842 6.15023 19.0958 5.11484Z" fill="white"/>
<path d="M16.5474 7.78966C14.5802 4.80999 10.1393 4.51657 7.75213 7.15688C6.12424 8.95733 6.00915 11.9543 7.23443 14.0827C7.30346 14.1057 7.36671 14.146 7.42432 14.215C9.41465 16.4354 12.843 17.2407 15.3051 15.2274C17.5024 13.427 18.1466 10.2113 16.5474 7.78966Z" fill="white"/>
<path d="M8.70703 11.8739C9.40306 13.8297 11.8766 15.3828 13.8496 14.1748C17.8359 11.7358 13.1536 5.10919 9.86893 8.04857C8.70703 8.73306 8.25258 10.591 8.70703 11.8739Z" fill="#161618"/>
</svg>
