<svg width="22" height="22" viewBox="0 0 22 22" fill="none" xmlns="http://www.w3.org/2000/svg">
<path fill-rule="evenodd" clip-rule="evenodd" d="M11.0282 0.166664C5.06011 0.166664 0.223022 5.00375 0.223022 10.9718C0.223022 15.745 3.31811 19.7956 7.61244 21.2256C8.15302 21.3231 8.34802 20.9905 8.34802 20.7045C8.34802 20.4477 8.33936 19.7674 8.33611 18.8672C5.32986 19.5193 4.69502 17.4177 4.69502 17.4177C4.20536 16.1697 3.49577 15.8371 3.49577 15.8371C2.51536 15.1665 3.57052 15.1817 3.57052 15.1817C4.65602 15.2575 5.22477 16.2953 5.22477 16.2953C6.18894 17.9463 7.75544 17.4697 8.36861 17.1934C8.46719 16.4947 8.74886 16.018 9.05653 15.7482C6.65802 15.4763 4.13602 14.549 4.13602 10.4074C4.13602 9.22983 4.55744 8.2635 5.24536 7.5095C5.13594 7.23541 4.76219 6.13583 5.35261 4.6495C5.35261 4.6495 6.25936 4.35808 8.32311 5.75558C9.2045 5.51581 10.1137 5.39342 11.0271 5.39158C11.9406 5.39306 12.8498 5.51546 13.7311 5.75558C15.7959 4.357 16.7016 4.6495 16.7016 4.6495C17.292 6.13583 16.9215 7.23541 16.8089 7.5095C17.5022 8.2635 17.9182 9.22875 17.9182 10.4074C17.9182 14.5598 15.394 15.472 12.9869 15.7396C13.3714 16.0732 13.7181 16.7319 13.7181 17.7394C13.7181 19.1846 13.7051 20.3502 13.7051 20.7045C13.7051 20.9937 13.8979 21.3296 14.4494 21.2234C18.7415 19.7912 21.8334 15.7439 21.8334 10.9718C21.8334 5.00375 16.9963 0.166664 11.0282 0.166664Z" fill="white"/>
</svg>
