<svg width="21" height="21" viewBox="0 0 21 21" fill="none" xmlns="http://www.w3.org/2000/svg">
<path d="M4.88823 6.75589H0.67245C0.485347 6.75589 0.33374 6.90756 0.33374 7.0946V20.6381C0.33374 20.8252 0.485347 20.9768 0.67245 20.9768H4.88823C5.07534 20.9768 5.22694 20.8252 5.22694 20.6381V7.0946C5.22694 6.90756 5.07534 6.75589 4.88823 6.75589Z" fill="white"/>
<path d="M2.78189 0.0230942C1.24794 0.0230942 0 1.26968 0 2.80194C0 4.33487 1.24794 5.58193 2.78189 5.58193C4.31462 5.58193 5.56154 4.3348 5.56154 2.80194C5.56161 1.26968 4.31462 0.0230942 2.78189 0.0230942Z" fill="white"/>
<path d="M15.6114 6.41929C13.9182 6.41929 12.6665 7.14718 11.9073 7.97424V7.09461C11.9073 6.90757 11.7557 6.7559 11.5686 6.7559H7.53128C7.34417 6.7559 7.19257 6.90757 7.19257 7.09461V20.6381C7.19257 20.8252 7.34417 20.9768 7.53128 20.9768H11.7378C11.9249 20.9768 12.0766 20.8252 12.0766 20.6381V13.9372C12.0766 11.6792 12.6899 10.7995 14.2639 10.7995C15.9782 10.7995 16.1144 12.2097 16.1144 14.0534V20.6382C16.1144 20.8253 16.2661 20.9769 16.4532 20.9769H20.6613C20.8484 20.9769 21 20.8253 21 20.6382V13.2093C21 9.8517 20.3598 6.41929 15.6114 6.41929Z" fill="white"/>
</svg>
